<svg width="87" height="114" viewBox="0 0 87 114" fill="none" xmlns="http://www.w3.org/2000/svg">
<path opacity="0.2" d="M50.9226 107.092C51.58 105.223 51.4455 103.032 52.2229 101.235C53.2163 98.9382 55.4127 97.8726 57.2572 96.554C59.1017 95.2271 60.8763 92.9098 60.2197 90.4391C59.5972 88.0899 57.2397 87.1323 55.3541 85.9984C53.4716 84.863 51.64 82.0548 52.9381 80.1684C53.6639 79.1166 54.9992 79.0398 56.1704 79.1348C59.8442 79.4282 63.9946 80.4192 66.6561 77.9029C67.901 76.7272 68.6025 74.9168 69.9005 73.8825C71.9753 72.234 74.9363 72.9887 77.5226 73.007C82.3326 72.9705 86.5233 69.8537 86.2618 64.5907C86.0201 59.5648 82.0598 53.8451 77.6525 50.701C73.2544 47.5599 68.376 46.5096 63.5203 45.2442C61.7754 44.776 59.582 43.7834 59.3061 41.7466C58.9862 39.3785 61.5177 38.4482 63.5044 38.3707C66.9593 38.2111 70.3695 38.2788 73.7013 38.5957C76.8249 38.8617 80.3635 39.1299 81.1691 36.1743C82.0225 33.0598 79.2584 28.2407 76.3795 25.0479C70.6377 18.6236 63.2718 14.8449 56.2114 15.4643C56.9957 13.1661 55.9735 10.1945 54.2917 8.17819C52.6098 6.16267 50.3784 4.94287 48.1942 3.88875C43.5475 1.63079 38.6478 -0.197773 33.7116 1.01671C28.7617 2.19547 23.8628 7.34904 23.2282 12.891C17.5327 11.6195 11.0553 14.5713 5.93971 20.3329C2.80243 23.819 -0.112935 29.0736 0.111265 32.6715C0.291385 35.5838 2.48399 36.4775 4.74347 37.1213C7.50303 37.8851 10.562 38.5151 13.8437 38.9894C15.3044 39.1915 17.098 39.7919 16.9703 41.6706C16.8389 43.5782 14.8515 44.9067 13.2707 45.7853C8.79123 48.215 3.95003 52.3106 2.56759 57.5326C1.31207 62.2248 3.59967 65.8432 6.96495 67.3457C10.3234 68.8155 14.5193 68.6096 18.6279 68.7274C19.8819 68.7631 21.183 68.8459 22.2425 69.5345C23.3011 70.2215 24.0543 71.683 23.7017 73.1514C23.2153 75.1676 21.158 76.0287 19.606 77.1657C15.3174 80.3592 14.1006 87.7912 17.2386 91.6345C19.2245 94.0833 22.3245 95.0135 24.8029 96.9971C27.4165 99.0886 29.2595 102.277 31.2348 105.269C33.2108 108.262 35.5037 111.239 38.5323 112.524C40.9248 113.539 43.3621 113.051 45.4711 111.468C46.9858 110.328 50.2295 109.06 50.9226 107.092Z" fill="#D7D5D5"/>
</svg>
