<svg width="64" height="138" viewBox="0 0 64 138" fill="none" xmlns="http://www.w3.org/2000/svg">
<path opacity="0.2" d="M39.7235 128.753C39.1505 125.755 36.9845 123.49 35.2122 121.127C33.4421 118.762 31.9313 115.595 32.9869 112.746C34.0144 109.97 37.0141 108.802 39.7175 108.442C42.4215 108.076 45.3392 108.114 47.5196 106.499C51.214 103.782 50.7496 97.1158 47.4467 93.2763C44.1445 89.4542 39.0152 88.3294 34.3465 88.9291C32.9785 89.094 31.362 89.6328 30.9782 91.0715C30.4903 92.8978 32.3918 94.2916 34.0425 94.8882C35.694 95.4765 37.7179 96.2775 37.9854 98.1486C36.1303 98.8744 34.2401 99.6657 32.7065 101.05C31.172 102.433 30.0282 104.525 30.1772 106.66C30.295 108.342 31.1834 109.994 30.7479 111.627C29.8473 114.975 24.6337 114.726 23.4185 117.99C22.5832 120.212 24.1671 122.437 25.0152 124.609C25.8459 126.731 25.9827 129.108 26.4425 131.377C26.9031 133.647 27.8136 135.997 29.6322 137.184C33.4573 139.681 40.5975 133.369 39.7235 128.753Z" fill="#D7D5D5"/>
<path opacity="0.2" d="M19.0786 95.4294C16.259 95.7175 13.2942 94.4505 12.6733 91.6811C11.99 88.6479 14.2085 84.721 13.0594 81.9364C12.1185 79.6678 9.44557 79.4018 7.48781 78.5506C4.63173 77.3004 3.08284 74.4618 1.67152 71.8253C0.869724 70.3243 0.0740081 68.7283 0.498088 66.4863C1.12813 63.115 4.19397 59.8424 7.11237 58.0678C9.96921 56.2955 13.2175 55.2741 15.7787 56.4201C18.3414 57.5609 19.7611 61.3259 18.1354 64.4936C17.1094 66.5069 15.217 67.8771 13.7077 69.5659C12.1953 71.2546 10.9504 73.8158 11.8069 75.4171C13.0328 77.7131 17.3587 76.0502 18.7594 78.505C19.736 80.2173 18.6264 82.9122 19.5482 84.6762H19.549C21.0249 87.4851 26.8017 85.6003 27.4477 89.3608C28.1089 93.2452 21.449 95.1163 19.0786 95.4294Z" fill="#D7D5D5"/>
<path opacity="0.2" d="M55.0248 54.1941C57.5837 55.7483 60.7384 57.8216 62.3884 56.3928C63.9456 55.0521 62.8406 51.5409 61.6778 48.7031C58.7708 41.7316 55.2999 33.7478 49.1051 30.2169C46.0887 28.5266 42.7819 28.2599 39.5808 27.5265C36.3797 26.7649 32.9582 25.2647 31.8235 22.1875C30.4889 18.5737 32.8138 14.4127 35.058 11.1758C37.4794 10.9509 40.0915 10.8589 41.8783 9.40502C43.6628 7.96558 43.8383 4.38141 41.626 3.07193C40.036 2.14701 38.1581 3.00353 36.9641 4.28641C35.7694 5.56625 34.9425 7.21698 33.6308 8.43906C31.3705 10.5389 28.0934 11.1287 25.1598 11.4053C22.2262 11.6637 19.3534 11.6858 16.5376 12.996C12.3629 14.9143 8.68377 19.757 6.86053 24.6711C5.62325 28.0425 5.50241 31.8972 7.85081 31.8562C8.79093 31.8501 9.91725 31.2299 10.9463 31.1137C13.4619 30.8477 14.8291 33.4438 17.2512 34.0663C19.6627 34.6963 22.6761 33.4142 25.4197 32.2179C28.1595 31.0118 31.0985 29.8315 33.8481 30.647C36.5993 31.464 38.7175 35.1629 37.1321 37.5972C36.0575 39.2609 33.8626 39.6857 31.9215 39.783C29.982 39.8689 27.9528 39.7883 26.1987 40.8607C24.4446 41.9361 23.259 44.6774 24.4728 46.0287C22.6191 45.5377 20.4501 47.6497 20.0602 49.7853C19.6688 51.9194 20.6773 53.805 22.1487 54.9397C27.3334 59.0072 31.5088 52.9241 37.0143 51.297C42.9598 49.568 49.4114 50.7148 55.0248 54.1941Z" fill="#D7D5D5"/>
<path opacity="0.2" d="M29.4946 4.76134C30.507 3.82806 30.9972 2.34074 30.6916 1.07762C28.6997 0.385261 26.5215 0.312306 24.392 0.893706C22.8074 1.31171 20.893 2.65462 20.8458 4.30534C20.8154 5.32526 21.5952 5.96747 22.4988 6.10351C23.3865 6.15063 28.4899 4.82442 29.4946 4.76134Z" fill="#D7D5D5"/>
</svg>
