<svg width="59" height="132" viewBox="0 0 59 132" fill="none" xmlns="http://www.w3.org/2000/svg">
<path opacity="0.2" d="M36.7446 127.526C36.1845 126.745 35.3804 126.224 34.5953 125.721C34.15 125.435 33.6126 125.141 33.1407 125.369C32.8511 125.509 32.6611 125.817 32.5228 126.129C29.4957 133.043 40.2421 132.384 36.7446 127.526Z" fill="#D7D5D5"/>
<path opacity="0.2" d="M29.9153 110.958C31.1495 108.837 33.6963 108.287 35.9277 107.718C37.3359 107.355 38.7556 106.89 39.8713 105.943C40.987 104.993 41.7508 103.468 41.4901 101.916C41.2598 100.544 40.2665 99.3677 39.1037 98.6997C37.9401 98.0332 36.6216 97.8097 35.3265 97.7194C33.729 97.6045 31.886 97.8112 30.9778 99.2287C30.5142 99.9513 30.366 100.896 29.799 101.529C28.77 102.678 26.9969 102.249 25.5803 102.745C23.5594 103.452 22.4962 106.032 22.6451 108.292C22.7949 110.553 23.8611 112.588 24.8985 114.555C25.6608 115.986 28.3178 121.71 29.8294 119.141C31.091 117.006 28.3588 113.635 29.9153 110.958Z" fill="#D7D5D5"/>
<path opacity="0.2" d="M50.9499 93.05C52.2715 91.685 52.6386 89.1876 51.3701 87.2686C49.9223 85.076 47.2114 84.6816 44.8904 84.6816C44.3759 85.0897 44.6411 86.0633 45.1154 86.6561C45.5896 87.2489 46.2348 87.7117 46.554 88.4026C48.7717 93.069 40.3904 89.8701 41.6961 93.05C43.2951 96.7018 49.4481 94.5387 50.9499 93.05Z" fill="#D7D5D5"/>
<path opacity="0.2" d="M14.7658 78.5332C14.5188 77.0983 12.862 76.4098 11.5837 77.2336C10.8336 78.2984 10.8161 79.7918 11.5434 80.5708C12.2699 81.352 13.7922 79.3365 14.7658 78.5332Z" fill="#D7D5D5"/>
<path opacity="0.2" d="M6.91744 53.0839C7.7542 51.7174 9.11913 50.8404 10.4111 50.4649C11.7016 50.0857 12.9754 50.1085 14.2864 49.9725C17.2154 49.6578 20.4865 48.4783 22.7923 46.1079C23.3638 45.5173 23.9057 44.6601 23.604 43.9563C23.3388 43.3407 22.5407 43.2153 21.8841 43.4289C21.229 43.6409 20.6423 44.0977 20.0069 44.3979C18.262 45.2225 16.422 44.8212 14.8868 44.2785C13.3523 43.7336 11.8711 43.0458 10.1717 43.3931C7.40762 43.9639 4.92241 47.0366 2.82253 49.9003C1.94093 51.1018 1.02744 52.4341 0.704436 53.7679C0.274276 55.541 1.01907 56.6612 1.76235 57.6386C2.37111 58.4389 3.03914 59.2878 4.12518 59.3995C8.08402 59.9041 5.66116 55.1693 6.91744 53.0839Z" fill="#D7D5D5"/>
<path opacity="0.2" d="M42.0347 31.8015C45.3042 30.8348 48.9355 30.4282 52.1161 33.2767C53.329 34.3567 54.3832 35.7953 55.5703 36.8837C56.7612 37.9644 58.2212 38.6674 58.6878 37.8002C59.2153 36.8213 58.2394 34.5201 57.1784 32.8101C53.0904 26.0727 46.7832 22.3836 40.596 21.9132C39.4841 21.8098 38.3175 21.8037 37.4146 22.3745C36.511 22.946 35.9873 24.2532 36.5459 25.3507C36.91 26.0651 37.6715 26.6449 37.7445 27.4179C37.8638 28.6551 36.2929 28.8786 35.1346 29.0526C33.4224 29.1279 26.096 35.1349 29.234 36.8829C31.0162 37.5707 40.4364 31.9604 42.0347 31.8015Z" fill="#D7D5D5"/>
<path opacity="0.2" d="M21.295 8.61707C20.3951 7.86543 18.9641 7.92092 17.7914 8.69687C16.6179 9.46675 15.7295 10.8629 15.405 12.2157C15.1755 13.1763 15.2446 14.1841 15.8473 14.6499C16.529 15.1774 17.6455 14.8886 18.6502 14.6287C20.0167 14.2623 21.7061 14.3475 22.3134 12.7165C22.4183 12.4277 21.45 8.74095 21.295 8.61707Z" fill="#D7D5D5"/>
<path opacity="0.2" d="M39.1919 0.278374C39.1911 0.278374 39.1911 0.278374 39.1911 0.278374C39.0604 0.319414 38.9365 0.375653 38.8195 0.447853C36.5858 1.86981 38.8332 3.37233 40.5515 2.68985C42.7373 1.87513 41.5843 -0.451986 39.1919 0.278374Z" fill="#D7D5D5"/>
</svg>
