<svg width="63" height="125" viewBox="0 0 63 125" fill="none" xmlns="http://www.w3.org/2000/svg">
<path opacity="0.2" d="M47.4969 113.981C48.8307 108.937 46.4238 102.757 41.9869 100.069C40.1485 98.9675 38.0676 98.4735 36.2292 97.3981C34.3915 96.3197 32.7248 94.3345 32.9171 92.0827C33.1041 89.8809 35.0124 87.9483 34.4516 85.8187C34.1559 84.6917 33.2158 83.8686 32.8806 82.7582C32.4459 81.3203 33.1664 79.7045 34.2729 78.8047C35.378 77.9041 36.7878 77.5849 38.1581 77.3919C41.8144 76.8713 45.5878 77.0514 48.9265 76.0664C52.2728 75.0579 55.1798 72.5583 55.0962 68.7051C55.0103 62.1888 46.9194 55.9606 47.4156 49.5873C47.6832 46.3975 50.1303 44.4041 52.6543 43.6007C55.1836 42.7769 57.9432 42.8225 60.0362 41.9105C62.1323 40.9818 63.4835 38.6395 62.4233 35.1374C60.9246 29.9694 55.5476 26.7911 52.4453 22.3914C50.2687 19.1934 49.7367 15.3994 47.9719 12.022C45.4693 7.21045 40.7482 4.25708 36.2376 2.47184C32.1138 0.794516 27.8791 -0.365236 23.5957 0.143964C19.3048 0.625044 14.9424 3.03955 11.8081 7.13975C8.67008 11.2498 6.92893 16.8609 7.99977 20.3721C8.71797 22.7228 10.6271 24.847 9.31607 27.8938C8.22699 30.398 5.68706 31.804 3.87142 33.9244C0.441544 37.9752 -0.459038 43.8766 0.944682 46.9706C2.36512 50.098 5.65894 51.3444 9.25982 52.3674C10.5822 52.7299 12.1349 53.2938 12.3203 54.9095C12.4526 56.0655 11.8104 57.3461 11.2191 58.5173C7.89792 65.1027 5.25842 72.1076 4.83282 78.696C4.4133 85.305 6.54207 91.5826 11.552 94.843C13.9376 96.3858 16.9252 97.256 18.791 99.6781C20.3247 101.67 20.865 104.389 21.8477 106.818C22.8327 109.249 24.6278 111.664 27.0818 111.806C24.2789 114.135 23.7272 119.085 25.9107 122.033C31.1015 129.049 45.6729 120.69 47.4969 113.981Z" fill="#D7D5D5"/>
</svg>
