<svg width="64" height="133" viewBox="0 0 64 133" fill="none" xmlns="http://www.w3.org/2000/svg">
<path opacity="0.2" d="M51.1169 101.353C50.461 96.7682 46.7256 93.1506 42.7151 91.6618C38.7076 90.1676 34.3992 90.3743 30.2108 90.4032C26.0194 90.4275 21.673 90.1927 18.3229 88.0533C15.8978 86.4938 14.1072 83.3018 15.495 80.1782C16.3279 78.3025 18.0448 77.0485 19.5374 75.7033C23.6771 71.9694 26.5689 66.4594 27.1047 60.8514C28.7509 61.6395 30.8394 61.0756 32.5775 60.1187C34.3156 59.1611 35.8615 57.8205 37.6087 56.9412C41.7834 54.8345 46.5866 55.6689 51.1025 56.1325C55.6321 56.5543 60.6002 56.3818 62.7708 52.9238C64.6373 49.9484 63.8051 44.9909 61.4674 41.0078C59.1288 37.0429 55.5052 34.1024 51.7356 32.2564C48.9068 30.8572 45.933 29.9794 43.1544 28.6259C40.3758 27.2601 37.7257 25.3031 36.5378 22.4182C35.3492 19.5484 36.0796 15.5242 38.7206 13.891C40.2907 12.9303 42.193 12.9927 43.9691 12.8034C45.746 12.602 47.6718 11.9446 48.1902 10.2095C48.637 8.71461 47.8284 6.86173 46.6177 5.68753C45.4071 4.51257 43.865 3.89165 42.3617 3.36801C37.459 1.65269 32.5121 0.574253 27.6732 0.197293C25.9298 0.0597326 24.1362 0.0300956 22.3874 0.884335C20.6364 1.7325 18.94 3.71154 18.671 5.67233C18.3488 8.00325 20.0633 9.25498 21.8767 9.82422C23.687 10.376 25.818 10.6511 27.1321 12.1802C23.2249 13.7314 19.3983 15.6717 15.7192 17.9798C14.4659 18.7633 13.1496 19.6905 12.2862 21.1155C11.4244 22.5451 11.3416 24.496 12.436 24.6047C10.7647 25.5919 9.08817 26.7107 7.66317 28.4032C6.23741 30.0965 5.09133 32.4791 5.15137 34.2202C5.22281 36.3087 6.9997 36.8225 8.9035 36.3961C10.8027 35.9576 12.8525 34.7765 14.9045 34.0986C20.5634 32.1819 26.3379 34.6359 29.5618 39.7067C26.6761 38.2657 22.7841 39.5607 20.4296 42.5794C18.0721 45.5974 17.3775 49.8679 18.7508 52.6517C15.0686 53.3266 11.394 54.3602 8.07433 56.8682C4.74629 59.3701 1.78761 63.5805 1.02989 67.5067C0.205288 71.7695 2.09921 74.697 4.43773 77.0492C6.76485 79.3619 9.66881 81.5963 10.9418 85.3196C11.6289 87.3282 11.7953 89.6554 12.7407 91.5447C14.4226 94.9039 18.2857 96.357 22.088 96.7302C25.8857 97.0928 29.8225 96.5539 33.6795 97.0616C35.5841 97.3116 37.5699 97.8914 38.8984 99.4405C40.2276 100.99 40.5803 103.735 39.2032 105.224C37.4757 107.087 33.6468 106.878 33.5548 109.567C33.4887 111.494 35.7254 112.478 36.2635 114.316C37.7288 119.323 28.3352 120.188 26.6221 123.747C25.2594 126.553 25.4099 130.316 28.2728 131.651C34.5656 134.617 41.3403 126.185 43.9691 120.926C46.7454 115.286 52.0905 108.129 51.1169 101.353Z" fill="#D7D5D5"/>
</svg>
