<svg width="64" height="136" viewBox="0 0 64 136" fill="none" xmlns="http://www.w3.org/2000/svg">
<path opacity="0.2" d="M39.3252 134.027C39.8557 132.927 39.4445 131.515 38.6891 130.593C37.9337 129.672 36.9001 129.11 35.9364 128.468C33.7187 126.991 31.7055 124.891 30.8725 122.174C30.0403 119.458 30.6696 116.059 32.8219 114.42C34.8861 112.847 38.0371 113.001 39.3526 110.687C40.4774 108.713 39.3853 105.842 37.4898 104.704C35.5959 103.569 33.2453 103.871 31.2541 104.776C29.2613 105.679 27.4981 107.111 25.6035 108.255C24.2385 109.078 22.6409 109.972 22.2541 111.611C21.7244 113.856 23.7817 115.593 25.4081 117.026C27.5293 118.888 29.3054 121.256 30.6027 123.921C31.0519 124.843 31.4516 125.835 31.4691 126.885C31.4881 127.936 31.0428 129.056 30.1893 129.5C29.4779 129.87 28.6123 129.727 27.9184 130.134C24.4019 132.188 29.5395 135.094 31.1461 135.232C33.1487 135.393 38.2362 136.29 39.3252 134.027Z" fill="#D7D5D5"/>
<path opacity="0.2" d="M49.4057 96.1135C50.5745 94.2599 50.8801 91.6584 49.8275 89.4863C49.0363 87.8599 47.5939 86.6591 46.0777 85.8482C42.9472 84.1625 39.2817 83.9467 36.1133 85.301C35.5418 85.5434 34.9497 85.8717 34.6662 86.4638C34.1266 87.5924 35.0508 88.9824 36.1521 89.4278C37.2518 89.8739 38.464 89.7287 39.6268 89.8906C40.7888 90.0495 42.0762 90.7031 42.4023 91.9358C42.688 93.0127 42.0915 94.1307 41.2532 94.7204C40.4149 95.3087 39.3821 95.4903 38.3811 95.6727C34.0849 96.4927 32.6469 101.697 37.8856 101.287C41.9068 100.996 47.1371 99.6915 49.4057 96.1135Z" fill="#D7D5D5"/>
<path opacity="0.2" d="M18.0189 79.0203C18.0189 79.0203 18.0189 79.0203 18.0181 79.0203C17.4854 78.8554 16.8774 78.847 16.3028 79.0089C15.6933 79.1806 15.121 79.5432 14.7099 80.1056C9.29793 87.2085 27.4733 82.0382 18.0189 79.0203Z" fill="#D7D5D5"/>
<path opacity="0.2" d="M11.6232 64.0164C12.0929 62.938 12.0313 61.8124 11.8938 60.7933C11.7562 59.7749 11.5556 58.7512 11.7866 57.637C12.3726 54.768 15.386 52.7768 18.0065 52.029C20.6171 51.2507 23.6122 50.8905 25.5426 48.685C26.3741 47.7304 26.9053 46.3799 26.5846 45.23C26.1149 43.5436 24.0925 43.0731 22.4251 43.5998C20.7554 44.1196 19.2316 45.3106 17.6097 46.0455C15.1451 47.1634 12.6728 47.1908 10.3472 47.4545C8.02006 47.7068 5.61086 48.308 3.4707 50.2787C1.3275 52.2562 -0.390089 55.8875 0.230831 57.8369C0.562191 58.8796 1.47038 59.2999 2.07762 60.1207C2.78214 61.073 3.04817 62.5078 3.40309 63.8439C3.75877 65.183 4.25503 66.5024 5.31675 67.1324C6.76227 67.9646 10.5478 66.434 11.6232 64.0164Z" fill="#D7D5D5"/>
<path opacity="0.2" d="M47.39 39.7071C47.39 39.7071 47.39 39.7071 47.3908 39.7071C51.8527 41.9362 56.4196 46.1374 60.3206 45.9414C62.2488 45.8479 63.6259 44.5681 63.9245 42.4872C64.2187 40.4131 63.4473 37.5403 61.8946 35.1577C59.8023 31.9315 56.6924 30.2048 53.7839 28.3793C50.8511 26.5196 48.0299 24.2715 45.0066 22.7028C41.9841 21.1296 38.5748 20.3157 35.5865 21.5271C33.1043 22.5243 30.9976 25.5604 32.0053 28.0882C32.3656 28.9956 33.0815 29.7526 33.2441 30.733C33.4622 32.0425 32.6118 33.3231 31.5858 34.15C30.5598 34.9753 29.343 35.5164 28.2965 36.357C26.8593 37.5152 25.347 40.4975 27.4149 41.5782C28.903 42.3678 30.8896 40.5628 32.2105 39.9085C37.0327 37.4788 42.3641 37.1884 47.39 39.7071Z" fill="#D7D5D5"/>
<path opacity="0.2" d="M24.0857 10.9198C23.8257 9.83152 22.6242 9.49103 21.5397 9.53131C17.3551 9.66355 13.2374 13.2074 9.79615 17.1336C8.89479 18.155 7.95316 19.3551 7.62788 20.6076C7.07232 22.7492 8.67212 23.57 10.3738 23.2584C12.8529 22.7834 15.6596 21.1669 18.3568 20.885C20.3875 20.6691 22.5026 21.0362 24.6458 19.8552C26.2304 18.9857 27.0489 18.5776 26.5656 16.8813C26.3095 15.9807 24.8145 15.6896 24.4041 14.8612C23.7437 13.5236 24.4178 12.3099 24.0857 10.9198Z" fill="#D7D5D5"/>
<path opacity="0.2" d="M46.96 4.31995C46.7882 3.09255 45.5327 2.17902 44.4413 1.57178C44.173 1.42206 43.904 1.27386 43.6311 1.13326C42.675 0.641535 41.6894 0.247854 40.6945 0.239494C40.6945 0.239494 40.6945 0.239494 40.6937 0.239494C32.2129 0.210614 48.0848 11.0437 46.96 4.31995Z" fill="#D7D5D5"/>
</svg>
