<svg width="67" height="132" viewBox="0 0 67 132" fill="none" xmlns="http://www.w3.org/2000/svg">
<path opacity="0.2" d="M49.747 119.656C49.747 119.657 49.747 119.657 49.747 119.656C53.243 116.29 57.0932 112.092 56.1029 107.066C55.3536 103.245 52.065 100.574 49.0144 98.3972C45.947 96.2021 42.8546 94.0574 39.7477 92.004C37.6602 90.6246 35.5643 89.2855 33.3974 88.1493C31.7227 87.2684 29.9157 86.4378 28.9187 84.7673C28.4075 83.91 28.1523 82.8802 28.0884 81.8337C27.864 78.1948 29.9604 74.4974 32.788 72.3124C35.6129 70.1259 39.0637 69.2846 42.4457 69.0277C46.9046 68.6834 51.4282 69.2321 55.6781 68.7928C59.9379 68.3285 64.0206 66.75 65.6158 63.0389C67.202 59.3643 65.4099 52.7827 61.2481 50.318C59.8231 49.498 58.294 49.2715 56.8325 48.5624C55.3733 47.8495 53.8624 46.3105 53.9346 44.6872C54.0106 43.0243 55.6348 42.2818 56.09 40.8134C56.8675 38.3115 54.152 35.3399 51.8104 33.519C49.4765 31.6798 46.7511 28.8184 47.8083 26.3119C48.7309 24.1238 51.6744 24.4833 53.9795 25.0974C56.2944 25.6659 59.2098 25.8088 59.3603 23.4452C59.4834 21.5642 57.6396 19.4726 55.8658 18.5264C54.0942 17.5711 52.1517 17.2238 50.4949 16.0063C48.1769 14.3122 47.1 11.3384 45.5328 8.90864C42.0482 3.47084 35.8543 1.17641 30.0959 0.824531C26.1661 0.533451 22.1642 0.926372 18.3989 3.10529C14.6198 5.25761 11.1119 9.49536 9.51797 14.0364C8.82979 15.9896 8.52609 18.0636 9.26679 19.1025C10.3543 20.6263 13.0499 19.4384 15.4059 18.7362C17.747 17.9876 20.6884 18.2734 20.8345 20.8672C16.9392 23.0059 13.163 25.5268 9.5714 28.3988C6.95829 30.4691 4.328 32.9801 2.60493 36.2952C0.326757 40.7276 0.170273 45.2275 1.7247 47.471C3.28658 49.7214 6.36898 50.2222 9.8095 49.9844C13.2402 49.7282 17.02 48.7395 20.842 48.0638C20.1844 50.7223 20.4056 53.415 21.4506 55.5476C15.7366 59.1629 10.8908 64.8781 7.41611 71.1032C5.67731 74.2208 4.22708 77.6256 4.21522 80.699C4.20184 83.9214 5.77466 86.3694 7.34216 88.812C9.54707 92.2381 11.9342 95.9789 15.7247 97.9676C18.1478 99.2368 21.1002 99.7726 23.0659 101.928C24.4694 103.468 25.2574 105.718 26.952 106.916C28.5548 108.052 30.6195 108.017 32.5293 108.369C34.4391 108.72 36.5372 109.815 36.9632 111.93C37.556 114.878 34.5629 117.144 31.9386 117.845C28.2692 118.818 23.9363 119.542 23.9469 124.735C23.9533 128.155 25.8684 130.651 28.8104 131.384C36.7034 133.373 44.4118 124.725 49.747 119.656Z" fill="#D7D5D5"/>
</svg>
