<svg width="42" height="40" viewBox="0 0 42 40" fill="none" xmlns="http://www.w3.org/2000/svg">
<path opacity="0.2" d="M29.1135 35.6841C27.9044 35.3968 26.6504 35.0928 25.6342 34.1451C24.6204 33.1981 23.9106 31.4061 24.3232 29.8321C24.9282 27.5202 27.2302 27.2823 29.0535 27.201C31.5425 27.0794 33.9904 26.4721 36.2423 25.529C38.574 24.5296 40.8137 23.0734 41.5266 20.4666C42.2334 17.9047 40.7324 13.5012 38.2214 12.5451C36.652 11.9911 35.2923 13.0391 33.7936 13.5065C32.2972 13.9572 30.0415 13.2915 29.7078 11.1764C29.4403 9.45498 30.6829 8.10369 30.6267 6.40053C30.559 4.23909 28.4789 2.7077 26.7583 2.75786C25.0407 2.79586 23.396 3.75498 21.6701 3.70862C19.514 3.65694 17.6596 2.06322 15.7162 1.22342C13.7706 0.35398 11.1859 0.6671 9.83795 3.10442C8.79538 4.97478 8.75647 7.50786 7.39706 8.93438C5.81322 10.5767 3.85416 9.56289 2.21188 11.0396C0.0443585 13.0346 0.0550732 16.9797 1.73536 18.1015C3.42757 19.2514 5.95959 18.8212 8.31171 19.0728C10.6603 19.3008 13.2736 20.8474 13.6202 24.0082C13.8003 25.6346 13.326 27.3043 13.2926 28.9528C13.2204 32.5301 15.2656 35.7039 17.6816 37.4177C17.6816 37.4184 17.6816 37.4177 17.6816 37.4184C19.7914 38.8936 22.9324 40.1141 25.3257 39.8808C26.3889 39.7531 30.2421 35.9303 29.1135 35.6841Z" fill="#D7D5D5"/>
</svg>
