<svg width="80" height="125" viewBox="0 0 80 125" fill="none" xmlns="http://www.w3.org/2000/svg">
<path opacity="0.2" d="M65.7983 30.8178C63.6825 27.1637 59.5329 24.9643 58.3184 21.1544C57.9696 20.0403 57.9316 18.901 57.5295 17.7945C56.5172 14.9916 53.6725 13.4777 51.2215 12.2214C46.7489 9.90566 42.5955 6.93179 38.3608 4.57503C34.1284 2.22663 29.6558 0.492304 24.9802 1.0585C20.2933 1.5829 15.3936 4.89118 12.5322 9.9315C9.67536 15.0037 9.36452 21.2282 12.5314 23.3022C9.85396 24.4536 7.17117 25.8687 4.86609 28.3357C2.55721 30.8026 0.673936 34.5137 0.745376 37.2581C0.838096 41.2526 4.898 41.4654 8.7322 40.4782C12.5398 39.4279 16.7601 37.5172 20.3883 38.7104C18.6206 38.8328 16.773 40.2487 15.7957 42.1335C14.8183 44.0213 14.7453 46.258 15.6094 47.7141C13.7436 47.7225 11.8566 47.8205 10.0007 48.6748C8.14246 49.5252 6.29185 51.2793 5.45129 53.4248C4.61225 55.5741 5.13741 57.9399 6.82461 58.1512C4.17449 58.4339 1.51982 62.1382 1.22114 65.1524C0.922457 68.1756 2.62105 70.3545 5.01505 71.0074C7.40449 71.645 10.3389 70.9329 13.0513 69.6029C15.7614 68.2744 18.3021 66.3493 20.8382 64.4934C18.5012 68.0244 20.1299 73.314 23.686 73.9638C20.7949 74.6341 17.8667 75.4458 15.2979 77.2698C12.7275 79.0953 10.5365 82.1026 10.2226 85.2498C9.75365 89.9071 13.4503 93.1796 17.3521 94.6996C21.2464 96.1854 25.6597 96.6042 29.2704 99.1076C24.0462 98.6501 19.661 105.359 20.3602 111.093C21.0556 116.848 25.5624 121.332 30.5085 123.091C35.4561 124.837 40.7822 124.233 45.8825 123.219C48.4293 122.715 51.1782 121.969 52.7841 119.672C54.276 117.539 54.3953 114.493 53.6809 111.857C52.9673 109.222 51.5301 106.895 50.1081 104.617C54.7198 103.848 58.6946 99.9968 59.8544 95.0819C61.0119 90.1799 59.1422 79.2283 55.4372 75.4754C62.0029 78.7039 63.5145 78.8969 69.6933 77.9295C73.3459 77.4484 73.7852 73.3854 76.8351 72.0737C78.3809 71.4147 80.0575 70.5407 79.8279 68.4074C79.5163 65.3872 76.0675 63.1999 73.7715 60.7193C71.7545 58.4849 74.8948 55.7747 73.8338 53.0646C72.7447 50.3058 70.3713 45.482 65.2109 44.2235C63.6126 38.886 69.7382 37.4648 65.7983 30.8178Z" fill="#D7D5D5"/>
</svg>
