<svg width="76" height="124" viewBox="0 0 76 124" fill="none" xmlns="http://www.w3.org/2000/svg">
<path opacity="0.2" d="M46.9903 118.402C48.7208 116.643 49.7171 113.684 48.6683 111.296C47.5655 108.778 44.6768 107.749 43.5269 105.247C42.4234 102.84 43.3764 99.7763 45.1138 97.9926C46.8504 96.2081 49.1897 95.4215 51.4416 94.7307C53.6934 94.0368 56.0114 93.3467 57.7024 91.7309C59.629 89.8879 60.5129 86.892 59.9847 83.9121C59.455 80.9389 57.5238 78.0441 54.9968 76.5933C53.5665 75.7732 51.9819 75.4137 50.5881 74.5124C49.198 73.6057 46.6779 70.0512 47.0845 68.4195C47.3687 67.2673 48.9495 61.9047 49.9611 62.5067C63.1486 70.6402 61.2403 61.9617 67.1508 61.7869C69.3897 61.8143 71.7374 62.2612 73.4337 61.4662C75.1293 60.6675 75.8474 57.9725 74.2925 55.3497C72.9389 53.0439 70.1231 51.473 69.8047 49.1261C69.6793 48.1715 70.0768 47.4982 70.2136 46.6812C70.6103 44.3161 68.7437 40.8641 66.5359 38.7947C64.3312 36.7282 61.8064 35.6908 59.3288 34.4429C58.4624 34.0021 57.52 33.461 56.9751 32.53C55.9195 30.7333 57.1187 28.8554 58.5673 28.3561C60.0166 27.8484 61.7882 28.0057 62.7488 26.9189C64.0841 25.4194 63.1813 21.8892 61.3733 19.4549C59.5637 17.0305 57.1059 15.5706 54.7012 14.4389C52.3004 13.2929 49.7468 12.3049 47.6887 10.4109C45.5098 8.41442 44.1797 5.55377 42.0593 3.59221C38.8955 0.660125 34.5217 0.449626 30.5104 0.877506C27.4499 1.14959 23.7532 2.39143 22.614 5.64955C22.0417 7.26683 22.31 8.92819 21.8023 10.5561C20.8219 13.6812 17.5038 15.5121 14.7465 16.6604C11.9778 17.7685 9.0351 18.9191 6.95422 21.8178C4.1559 25.7644 4.26989 30.6756 6.23905 32.9343C8.21733 35.2067 11.5872 35.7562 14.9236 36.6097C12.3821 39.2301 9.2669 40.703 6.48378 42.8531C3.68926 44.9833 0.897015 48.3615 0.282175 51.7329C-0.285545 54.8383 1.26941 56.9062 3.49165 57.575C5.70933 58.2301 8.47194 57.7574 11.2133 57.3447C13.9523 56.9283 16.8236 56.5809 19.3833 57.499C21.8654 58.3791 24.0641 61.4723 22.6596 64.282C21.7636 66.0764 19.8567 66.8881 18.3078 68.0387C15.3378 70.2457 13.3283 74.1347 13.1383 77.7933C12.9491 81.4611 14.5869 84.8446 17.332 86.6047C19.0002 87.671 21.0096 88.1529 22.6414 89.3909C24.2738 90.6259 25.4845 93.0647 24.6022 95.1684C23.9896 96.6322 22.4817 97.6878 22.4103 99.2709C22.348 100.617 23.3763 101.644 23.7153 102.925C24.2784 105.053 22.8907 107.211 22.2477 109.345C20.7946 114.165 23.469 119.582 27.4354 121.93C33.1248 125.286 42.2433 123.214 46.9903 118.402Z" fill="#D7D5D5"/>
</svg>
